<svg id="icon_derby" xmlns="http://www.w3.org/2000/svg" width="15" height="15" viewBox="0 0 15 15">
  <rect id="Rectangle_74394" data-name="Rectangle 74394" width="15" height="15" fill="none"/>
  <path id="Rectangle_74147" data-name="Rectangle 74147" d="M.485,0H6.344a.485.485,0,0,1,.485.485V3.734A3.415,3.415,0,0,1,3.415,7.148h0A3.415,3.415,0,0,1,0,3.734V.485A.485.485,0,0,1,.485,0Z" transform="translate(4.001 2)" fill="none" stroke="#ff7e01" stroke-miterlimit="10" stroke-width="0.8"/>
  <path id="Path_102475" data-name="Path 102475" d="M238.3,1723.44v2.479a2.606,2.606,0,0,1-2.606,2.606h0" transform="translate(-228.441 -1720.436)" fill="none" stroke="#ff7e01" stroke-linecap="round" stroke-miterlimit="10" stroke-width="0.5"/>
  <path id="Path_102476" data-name="Path 102476" d="M231.243,1737.813v1.337a1.69,1.69,0,0,1-1.69,1.69h-.575a.25.25,0,0,0-.25.25v.52a.25.25,0,0,0,.25.25h5.774a.25.25,0,0,0,.25-.25v-.52a.25.25,0,0,0-.25-.25h-.574a1.69,1.69,0,0,1-1.69-1.69v-1.337" transform="translate(-224.45 -1728.665)" fill="none" stroke="#ff7e01" stroke-miterlimit="10" stroke-width="0.8"/>
  <path id="Path_102477" data-name="Path 102477" d="M244.056,1721.276c1.034-.743,2.067-.061,2.067,1.253,0,1.447-1.384,2.781-2.067,2.781" transform="translate(-233.226 -1718.347)" fill="none" stroke="#ff7e01" stroke-miterlimit="10" stroke-width="0.8"/>
  <path id="Path_102478" data-name="Path 102478" d="M225.466,1721.276c-1.034-.743-2.067-.061-2.067,1.253,0,1.447,1.384,2.781,2.067,2.781" transform="translate(-221.398 -1718.347)" fill="none" stroke="#ff7e01" stroke-miterlimit="10" stroke-width="0.8"/>
</svg>
